<svg height="1694" width="720" xmlns="http://www.w3.org/2000/svg">
<rect height="1694" fill="#555" width="720"></rect>
<text fill="#7f7" font-family="Courier New" font-size="12" xml:space="preserve">
<tspan x="10" y="26">97 megabytes installed</tspan>
<tspan x="10" y="42"></tspan>
<tspan x="10" y="58">node_modules</tspan>
<tspan x="10" y="74">└─┬ ibm_db@2.0.0 </tspan>
<tspan x="10" y="90">  ├── bindings@1.2.1 </tspan>
<tspan x="10" y="106">  ├─┬ fstream@1.0.11 </tspan>
<tspan x="10" y="122">  │ ├── graceful-fs@4.1.11 </tspan>
<tspan x="10" y="138">  │ ├── inherits@2.0.3 </tspan>
<tspan x="10" y="154">  │ ├─┬ mkdirp@0.5.1 </tspan>
<tspan x="10" y="170">  │ │ └── minimist@0.0.8 </tspan>
<tspan x="10" y="186">  │ └─┬ rimraf@2.6.1 </tspan>
<tspan x="10" y="202">  │   └─┬ glob@7.1.1 </tspan>
<tspan x="10" y="218">  │     ├── fs.realpath@1.0.0 </tspan>
<tspan x="10" y="234">  │     ├─┬ inflight@1.0.6 </tspan>
<tspan x="10" y="250">  │     │ └── wrappy@1.0.2 </tspan>
<tspan x="10" y="266">  │     ├─┬ minimatch@3.0.3 </tspan>
<tspan x="10" y="282">  │     │ └─┬ brace-expansion@1.1.7 </tspan>
<tspan x="10" y="298">  │     │   ├── balanced-match@0.4.2 </tspan>
<tspan x="10" y="314">  │     │   └── concat-map@0.0.1 </tspan>
<tspan x="10" y="330">  │     ├── once@1.4.0 </tspan>
<tspan x="10" y="346">  │     └── path-is-absolute@1.0.1 </tspan>
<tspan x="10" y="362">  ├── nan@2.3.5 </tspan>
<tspan x="10" y="378">  ├── q@1.5.0 </tspan>
<tspan x="10" y="394">  ├─┬ request@2.81.0 </tspan>
<tspan x="10" y="410">  │ ├── aws-sign2@0.6.0 </tspan>
<tspan x="10" y="426">  │ ├── aws4@1.6.0 </tspan>
<tspan x="10" y="442">  │ ├── caseless@0.12.0 </tspan>
<tspan x="10" y="458">  │ ├─┬ combined-stream@1.0.5 </tspan>
<tspan x="10" y="474">  │ │ └── delayed-stream@1.0.0 </tspan>
<tspan x="10" y="490">  │ ├── extend@3.0.0 </tspan>
<tspan x="10" y="506">  │ ├── forever-agent@0.6.1 </tspan>
<tspan x="10" y="522">  │ ├─┬ form-data@2.1.4 </tspan>
<tspan x="10" y="538">  │ │ └── asynckit@0.4.0 </tspan>
<tspan x="10" y="554">  │ ├─┬ har-validator@4.2.1 </tspan>
<tspan x="10" y="570">  │ │ ├─┬ ajv@4.11.7 </tspan>
<tspan x="10" y="586">  │ │ │ ├── co@4.6.0 </tspan>
<tspan x="10" y="602">  │ │ │ └─┬ json-stable-stringify@1.0.1 </tspan>
<tspan x="10" y="618">  │ │ │   └── jsonify@0.0.0 </tspan>
<tspan x="10" y="634">  │ │ └── har-schema@1.0.5 </tspan>
<tspan x="10" y="650">  │ ├─┬ hawk@3.1.3 </tspan>
<tspan x="10" y="666">  │ │ ├── boom@2.10.1 </tspan>
<tspan x="10" y="682">  │ │ ├── cryptiles@2.0.5 </tspan>
<tspan x="10" y="698">  │ │ ├── hoek@2.16.3 </tspan>
<tspan x="10" y="714">  │ │ └── sntp@1.0.9 </tspan>
<tspan x="10" y="730">  │ ├─┬ http-signature@1.1.1 </tspan>
<tspan x="10" y="746">  │ │ ├── assert-plus@0.2.0 </tspan>
<tspan x="10" y="762">  │ │ ├─┬ jsprim@1.4.0 </tspan>
<tspan x="10" y="778">  │ │ │ ├── assert-plus@1.0.0 </tspan>
<tspan x="10" y="794">  │ │ │ ├── extsprintf@1.0.2 </tspan>
<tspan x="10" y="810">  │ │ │ ├── json-schema@0.2.3 </tspan>
<tspan x="10" y="826">  │ │ │ └── verror@1.3.6 </tspan>
<tspan x="10" y="842">  │ │ └─┬ sshpk@1.13.0 </tspan>
<tspan x="10" y="858">  │ │   ├── asn1@0.2.3 </tspan>
<tspan x="10" y="874">  │ │   ├── assert-plus@1.0.0 </tspan>
<tspan x="10" y="890">  │ │   ├── bcrypt-pbkdf@1.0.1 </tspan>
<tspan x="10" y="906">  │ │   ├─┬ dashdash@1.14.1 </tspan>
<tspan x="10" y="922">  │ │   │ └── assert-plus@1.0.0 </tspan>
<tspan x="10" y="938">  │ │   ├── ecc-jsbn@0.1.1 </tspan>
<tspan x="10" y="954">  │ │   ├─┬ getpass@0.1.6 </tspan>
<tspan x="10" y="970">  │ │   │ └── assert-plus@1.0.0 </tspan>
<tspan x="10" y="986">  │ │   ├── jodid25519@1.0.2 </tspan>
<tspan x="10" y="1002">  │ │   ├── jsbn@0.1.1 </tspan>
<tspan x="10" y="1018">  │ │   └── tweetnacl@0.14.5 </tspan>
<tspan x="10" y="1034">  │ ├── is-typedarray@1.0.0 </tspan>
<tspan x="10" y="1050">  │ ├── isstream@0.1.2 </tspan>
<tspan x="10" y="1066">  │ ├── json-stringify-safe@5.0.1 </tspan>
<tspan x="10" y="1082">  │ ├─┬ mime-types@2.1.15 </tspan>
<tspan x="10" y="1098">  │ │ └── mime-db@1.27.0 </tspan>
<tspan x="10" y="1114">  │ ├── oauth-sign@0.8.2 </tspan>
<tspan x="10" y="1130">  │ ├── performance-now@0.2.0 </tspan>
<tspan x="10" y="1146">  │ ├── qs@6.4.0 </tspan>
<tspan x="10" y="1162">  │ ├── safe-buffer@5.0.1 </tspan>
<tspan x="10" y="1178">  │ ├── stringstream@0.0.5 </tspan>
<tspan x="10" y="1194">  │ ├─┬ tough-cookie@2.3.2 </tspan>
<tspan x="10" y="1210">  │ │ └── punycode@1.4.1 </tspan>
<tspan x="10" y="1226">  │ ├── tunnel-agent@0.6.0 </tspan>
<tspan x="10" y="1242">  │ └── uuid@3.0.1 </tspan>
<tspan x="10" y="1258">  ├─┬ targz@1.0.1 </tspan>
<tspan x="10" y="1274">  │ └─┬ tar-fs@1.15.2 </tspan>
<tspan x="10" y="1290">  │   ├── chownr@1.0.1 </tspan>
<tspan x="10" y="1306">  │   ├─┬ pump@1.0.2 </tspan>
<tspan x="10" y="1322">  │   │ └── end-of-stream@1.4.0 </tspan>
<tspan x="10" y="1338">  │   └─┬ tar-stream@1.5.2 </tspan>
<tspan x="10" y="1354">  │     ├── bl@1.2.0 </tspan>
<tspan x="10" y="1370">  │     └── xtend@4.0.1 </tspan>
<tspan x="10" y="1386">  └─┬ unzipper@0.7.6 </tspan>
<tspan x="10" y="1402">    ├─┬ binary@0.3.0 </tspan>
<tspan x="10" y="1418">    │ ├── buffers@0.1.1 </tspan>
<tspan x="10" y="1434">    │ └─┬ chainsaw@0.1.0 </tspan>
<tspan x="10" y="1450">    │   └── traverse@0.3.9 </tspan>
<tspan x="10" y="1466">    ├── bluebird@3.4.7 </tspan>
<tspan x="10" y="1482">    ├── buffer-indexof-polyfill@1.0.1 </tspan>
<tspan x="10" y="1498">    ├─┬ duplexer2@0.1.4 </tspan>
<tspan x="10" y="1514">    │ └─┬ readable-stream@2.2.9 </tspan>
<tspan x="10" y="1530">    │   └── string_decoder@1.0.0 </tspan>
<tspan x="10" y="1546">    ├── listenercount@1.0.1 </tspan>
<tspan x="10" y="1562">    ├─┬ readable-stream@2.1.5 </tspan>
<tspan x="10" y="1578">    │ ├── buffer-shims@1.0.0 </tspan>
<tspan x="10" y="1594">    │ ├── core-util-is@1.0.2 </tspan>
<tspan x="10" y="1610">    │ ├── isarray@1.0.0 </tspan>
<tspan x="10" y="1626">    │ ├── process-nextick-args@1.0.7 </tspan>
<tspan x="10" y="1642">    │ ├── string_decoder@0.10.31 </tspan>
<tspan x="10" y="1658">    │ └── util-deprecate@1.0.2 </tspan>
<tspan x="10" y="1674">    └── setimmediate@1.0.5</tspan>
</text>
</svg>
